M48
; DRILL file {KiCad (6.0.11-0)} date 
; FORMAT={-:-/ absolute / metric / decimal}
; #@! TF.CreationDate,2025-01-13T00:26:32+09:00
; #@! TF.GenerationSoftware,Kicad,Pcbnew,(6.0.11-0)
; #@! TF.FileFunction,Plated,1,2,PTH
FMAT,2
METRIC
; #@! TA.AperFunction,Plated,PTH,ViaDrill
T1C0.400
; #@! TA.AperFunction,Plated,PTH,ComponentDrill
T2C0.900
%
G90
G05
T1
X2.585Y-38.418
X3.035Y-69.645
X5.035Y-42.565
X5.875Y-25.575
X6.025Y-20.395
X9.025Y-27.975
X9.335Y-50.505
X9.525Y-42.565
X10.385Y-43.865
X10.755Y-25.405
X11.555Y-20.395
X13.925Y-56.175
X14.335Y-25.405
X16.115Y-64.405
X21.635Y-38.418
X22.085Y-69.645
X24.085Y-42.565
X24.925Y-25.575
X25.075Y-20.395
X28.075Y-27.975
X28.385Y-50.505
X28.575Y-42.565
X29.435Y-43.865
X29.805Y-25.405
X30.605Y-20.395
X32.975Y-56.175
X33.385Y-25.405
X35.165Y-64.405
X40.685Y-38.418
X41.135Y-69.645
X43.135Y-42.565
X43.975Y-25.575
X44.125Y-20.395
X47.125Y-27.975
X47.435Y-50.505
X47.625Y-42.565
X48.485Y-43.865
X48.855Y-25.405
X49.655Y-20.395
X52.025Y-56.175
X52.435Y-25.405
X54.215Y-64.405
X59.735Y-38.418
X60.185Y-69.645
X62.185Y-42.565
X63.025Y-25.575
X63.175Y-20.395
X66.175Y-27.975
X66.485Y-50.505
X66.675Y-42.565
X67.535Y-43.865
X67.905Y-25.405
X68.705Y-20.395
X71.075Y-56.175
X71.485Y-25.405
X73.265Y-64.405
X78.785Y-38.418
X79.235Y-69.645
X81.235Y-42.565
X82.075Y-25.575
X82.225Y-20.395
X85.225Y-27.975
X85.535Y-50.505
X85.725Y-42.565
X86.585Y-43.865
X86.955Y-25.405
X87.755Y-20.395
X90.125Y-56.175
X90.535Y-25.405
X92.315Y-64.405
T2
X13.385Y-23.675
X15.925Y-23.675
X32.435Y-23.675
X34.975Y-23.675
X51.485Y-23.675
X54.025Y-23.675
X70.535Y-23.675
X73.075Y-23.675
X89.585Y-23.675
X92.125Y-23.675
T0
M30
