%TF.GenerationSoftware,KiCad,Pcbnew,(6.0.11-0)*%
%TF.CreationDate,2025-01-13T00:26:26+09:00*%
%TF.ProjectId,Array,41727261-792e-46b6-9963-61645f706362,rev?*%
%TF.SameCoordinates,Original*%
%TF.FileFunction,Soldermask,Bot*%
%TF.FilePolarity,Negative*%
%FSLAX46Y46*%
G04 Gerber Fmt 4.6, Leading zero omitted, Abs format (unit mm)*
G04 Created by KiCad (PCBNEW (6.0.11-0)) date 2025-01-13 00:26:26*
%MOMM*%
%LPD*%
G01*
G04 APERTURE LIST*
G04 Aperture macros list*
%AMRoundRect*
0 Rectangle with rounded corners*
0 $1 Rounding radius*
0 $2 $3 $4 $5 $6 $7 $8 $9 X,Y pos of 4 corners*
0 Add a 4 corners polygon primitive as box body*
4,1,4,$2,$3,$4,$5,$6,$7,$8,$9,$2,$3,0*
0 Add four circle primitives for the rounded corners*
1,1,$1+$1,$2,$3*
1,1,$1+$1,$4,$5*
1,1,$1+$1,$6,$7*
1,1,$1+$1,$8,$9*
0 Add four rect primitives between the rounded corners*
20,1,$1+$1,$2,$3,$4,$5,0*
20,1,$1+$1,$4,$5,$6,$7,0*
20,1,$1+$1,$6,$7,$8,$9,0*
20,1,$1+$1,$8,$9,$2,$3,0*%
G04 Aperture macros list end*
%ADD10RoundRect,0.762000X1.037550X1.478911X-1.799550X-0.159089X-1.037550X-1.478911X1.799550X0.159089X0*%
%ADD11RoundRect,0.571500X0.018684X1.110639X-0.971184X0.539139X-0.018684X-1.110639X0.971184X-0.539139X0*%
%ADD12R,2.550000X2.500000*%
%ADD13R,1.800000X1.800000*%
%ADD14C,1.800000*%
G04 APERTURE END LIST*
D10*
%TO.C,BT1*%
X3265000Y-22938080D03*
D11*
X15865000Y-44761920D03*
%TD*%
D12*
%TO.C,SW1*%
X3327400Y-52690000D03*
X16840200Y-50150000D03*
%TD*%
%TO.C,SW2*%
X3327400Y-71740000D03*
X16840200Y-69200000D03*
%TD*%
D13*
%TO.C,D_IR1*%
X15925000Y-23675000D03*
D14*
X13385000Y-23675000D03*
%TD*%
D13*
%TO.C,D_IR1*%
X34975000Y-23675000D03*
D14*
X32435000Y-23675000D03*
%TD*%
D12*
%TO.C,SW1*%
X22377400Y-52690000D03*
X35890200Y-50150000D03*
%TD*%
D10*
%TO.C,BT1*%
X22315000Y-22938080D03*
D11*
X34915000Y-44761920D03*
%TD*%
D12*
%TO.C,SW2*%
X22377400Y-71740000D03*
X35890200Y-69200000D03*
%TD*%
D13*
%TO.C,D_IR1*%
X54025000Y-23675000D03*
D14*
X51485000Y-23675000D03*
%TD*%
D12*
%TO.C,SW1*%
X41427400Y-52690000D03*
X54940200Y-50150000D03*
%TD*%
D10*
%TO.C,BT1*%
X41365000Y-22938080D03*
D11*
X53965000Y-44761920D03*
%TD*%
D12*
%TO.C,SW2*%
X41427400Y-71740000D03*
X54940200Y-69200000D03*
%TD*%
D13*
%TO.C,D_IR1*%
X73075000Y-23675000D03*
D14*
X70535000Y-23675000D03*
%TD*%
D12*
%TO.C,SW1*%
X60477400Y-52690000D03*
X73990200Y-50150000D03*
%TD*%
D10*
%TO.C,BT1*%
X60415000Y-22938080D03*
D11*
X73015000Y-44761920D03*
%TD*%
D12*
%TO.C,SW2*%
X60477400Y-71740000D03*
X73990200Y-69200000D03*
%TD*%
D13*
%TO.C,D_IR1*%
X92125000Y-23675000D03*
D14*
X89585000Y-23675000D03*
%TD*%
D12*
%TO.C,SW1*%
X79527400Y-52690000D03*
X93040200Y-50150000D03*
%TD*%
D10*
%TO.C,BT1*%
X79465000Y-22938080D03*
D11*
X92065000Y-44761920D03*
%TD*%
D12*
%TO.C,SW2*%
X79527400Y-71740000D03*
X93040200Y-69200000D03*
%TD*%
M02*
