%TF.GenerationSoftware,KiCad,Pcbnew,(6.0.11-0)*%
%TF.CreationDate,2025-01-13T00:44:50+09:00*%
%TF.ProjectId,Array,41727261-792e-46b6-9963-61645f706362,rev?*%
%TF.SameCoordinates,Original*%
%TF.FileFunction,Profile,NP*%
%FSLAX46Y46*%
G04 Gerber Fmt 4.6, Leading zero omitted, Abs format (unit mm)*
G04 Created by KiCad (PCBNEW (6.0.11-0)) date 2025-01-13 00:44:50*
%MOMM*%
%LPD*%
G01*
G04 APERTURE LIST*
%TA.AperFunction,Profile*%
%ADD10C,0.050000*%
%TD*%
%TA.AperFunction,Profile*%
%ADD11C,0.100000*%
%TD*%
G04 APERTURE END LIST*
D10*
X0Y0D02*
X95250000Y0D01*
X95250000Y0D02*
X95250000Y-95250000D01*
X95250000Y-95250000D02*
X0Y-95250000D01*
X0Y-95250000D02*
X0Y0D01*
D11*
X76200000Y-19050000D02*
X95250000Y-19050000D01*
X95250000Y-19050000D02*
X95250000Y-76200000D01*
X95250000Y-76200000D02*
X76200000Y-76200000D01*
X76200000Y-76200000D02*
X76200000Y-19050000D01*
X57150000Y-19050000D02*
X76200000Y-19050000D01*
X76200000Y-19050000D02*
X76200000Y-76200000D01*
X76200000Y-76200000D02*
X57150000Y-76200000D01*
X57150000Y-76200000D02*
X57150000Y-19050000D01*
X38100000Y-19050000D02*
X57150000Y-19050000D01*
X57150000Y-19050000D02*
X57150000Y-76200000D01*
X57150000Y-76200000D02*
X38100000Y-76200000D01*
X38100000Y-76200000D02*
X38100000Y-19050000D01*
X19050000Y-19050000D02*
X38100000Y-19050000D01*
X38100000Y-19050000D02*
X38100000Y-76200000D01*
X38100000Y-76200000D02*
X19050000Y-76200000D01*
X19050000Y-76200000D02*
X19050000Y-19050000D01*
X0Y-19050000D02*
X19050000Y-19050000D01*
X19050000Y-19050000D02*
X19050000Y-76200000D01*
X19050000Y-76200000D02*
X0Y-76200000D01*
X0Y-76200000D02*
X0Y-19050000D01*
M02*
